<svg width="510" height="33" viewBox="0 0 510 33" fill="none" xmlns="http://www.w3.org/2000/svg">
<path d="M41 10.0091H44.6088V24.7483H41V10.0091ZM46.0478 19.2041C46.0478 15.5533 48.2963 13.3651 51.669 13.3651C55.0417 13.3651 57.2901 15.5533 57.2901 19.2041C57.2901 22.8549 55.1203 25.0658 51.669 25.0658C48.2176 25.0658 46.0478 22.9342 46.0478 19.2041ZM53.7151 19.2041C53.7151 17.1973 52.9393 16.0181 51.7027 16.0181C50.466 16.0181 49.7016 17.1519 49.7016 19.2041C49.7016 21.2562 50.466 22.3787 51.7027 22.3787C52.9393 22.3787 53.7375 21.2562 53.7375 19.2154L53.7151 19.2041ZM58.7291 25.5079H62.2142C62.3729 25.8863 62.65 26.202 63.0032 26.4067C63.3564 26.6114 63.7663 26.694 64.1704 26.6417C65.5532 26.6417 66.2727 25.8934 66.2727 24.7823V22.7415H66.284C65.9862 23.377 65.5046 23.9066 64.9026 24.2608C64.3006 24.6149 63.6063 24.777 62.9113 24.7256C60.2693 24.7256 58.5155 22.6961 58.5155 19.2041C58.5155 15.712 60.1906 13.5351 63.0124 13.5351C63.7253 13.4967 64.4325 13.6821 65.0366 14.0659C65.6406 14.4497 66.1118 15.0129 66.3851 15.678H66.284V13.6259H69.859V24.6689C69.859 27.3333 67.5206 29 64.0805 29C60.9551 28.9887 58.954 27.5488 58.7516 25.5193L58.7291 25.5079ZM66.284 19.2041C66.284 17.424 65.4745 16.3016 64.1929 16.3016C62.9113 16.3016 62.1243 17.4354 62.1243 19.2041C62.1243 20.9728 62.9 22.0159 64.1929 22.0159C65.4858 22.0159 66.284 21.0522 66.284 19.2041ZM71.2868 19.2041C71.2868 15.5533 73.5353 13.3651 76.9079 13.3651C80.2806 13.3651 82.5291 15.5533 82.5291 19.2041C82.5291 22.8549 80.3481 25.0658 76.9079 25.0658C73.4678 25.0658 71.3093 22.9342 71.3093 19.2041H71.2868ZM78.954 19.2041C78.954 17.1973 78.1671 16.0181 76.9417 16.0181C75.7163 16.0181 74.9405 17.1519 74.9405 19.2041C74.9405 21.2562 75.705 22.3787 76.9417 22.3787C78.1783 22.3787 78.9765 21.2562 78.9765 19.2154L78.954 19.2041ZM83.9906 10.9388C83.9749 10.568 84.0695 10.2011 84.2624 9.88503C84.4552 9.56899 84.7373 9.31836 85.0725 9.16538C85.4078 9.01239 85.7807 8.96406 86.1434 9.02659C86.506 9.08912 86.8419 9.25966 87.1077 9.51626C87.3734 9.77286 87.557 10.1038 87.6348 10.4665C87.7125 10.8292 87.6809 11.207 87.544 11.5514C87.407 11.8958 87.1711 12.191 86.8664 12.3991C86.5617 12.6071 86.2023 12.7185 85.8343 12.7188C85.5992 12.7248 85.3652 12.6837 85.146 12.5978C84.9267 12.5119 84.7266 12.3829 84.5571 12.2184C84.3877 12.0538 84.2524 11.857 84.159 11.6393C84.0656 11.4216 84.016 11.1873 84.0131 10.9501L83.9906 10.9388ZM83.9906 13.6145H87.6444V24.7937H84.0468L83.9906 13.6145ZM100.787 19.2041C100.787 22.8435 99.1677 24.9524 96.4134 24.9524C95.7082 24.9962 95.0067 24.8208 94.4035 24.4498C93.8004 24.0787 93.3247 23.5299 93.0407 22.8776H92.9732V28.3878H89.3644V13.6485H92.9507V15.644H93.0182C93.2925 14.9788 93.7635 14.415 94.3671 14.0295C94.9706 13.644 95.6773 13.4556 96.3909 13.4898C99.2239 13.4671 100.854 15.5646 100.854 19.2154L100.787 19.2041ZM97.1104 19.2041C97.1104 17.4354 96.2897 16.2902 95.0193 16.2902C93.7489 16.2902 92.9507 17.424 92.9395 19.2041C92.9282 20.9841 93.7489 22.1066 95.0193 22.1066C96.2897 22.1066 97.1778 21.0522 97.1778 19.2154L97.1104 19.2041ZM106.947 13.3537C109.972 13.3537 111.849 14.7937 111.872 17.1066H108.578C108.578 16.3016 107.914 15.8027 106.925 15.8027C105.936 15.8027 105.463 16.1882 105.463 16.7664C105.463 17.3447 105.879 17.5261 106.711 17.6961L109.027 18.1723C111.276 18.6485 112.175 19.5556 112.175 21.2449C112.175 23.5125 110.095 25.0544 107.004 25.0544C103.912 25.0544 101.9 23.5578 101.753 21.2789H105.25C105.351 22.1066 106.003 22.5941 107.06 22.5941C108.117 22.5941 108.611 22.254 108.611 21.6531C108.611 21.0522 108.274 20.9501 107.408 20.7687L105.317 20.3265C103.148 19.8617 102.012 18.7166 102.012 17.0045C102.079 14.7823 103.968 13.3651 107.015 13.3651L106.947 13.3537ZM124.261 24.7823H120.764V22.6848H120.697C120.501 23.3844 120.075 23.9959 119.488 24.4184C118.902 24.8409 118.19 25.0493 117.47 25.0091C116.927 25.0269 116.386 24.9287 115.883 24.7208C115.38 24.5129 114.926 24.2001 114.551 23.8029C114.176 23.4057 113.889 22.9331 113.708 22.416C113.527 21.8989 113.457 21.3492 113.502 20.8027V13.6259H117.11V20.0204C117.11 21.3356 117.796 22.0499 118.92 22.0499C119.184 22.0479 119.444 21.9888 119.684 21.8767C119.923 21.7646 120.135 21.602 120.307 21.4C120.479 21.198 120.605 20.9611 120.678 20.7055C120.751 20.4499 120.769 20.1815 120.73 19.9184V13.6259H124.328L124.261 24.7823ZM126.003 13.6145H129.511V15.7687H129.589C129.783 15.0786 130.198 14.4728 130.77 14.0461C131.342 13.6194 132.037 13.3958 132.749 13.4104C133.462 13.3478 134.174 13.556 134.743 13.9942C135.313 14.4325 135.7 15.0692 135.829 15.78H135.986C136.211 15.0654 136.663 14.4457 137.273 14.0172C137.883 13.5887 138.616 13.3754 139.359 13.4104C139.853 13.3915 140.344 13.4779 140.803 13.6639C141.261 13.8499 141.675 14.1314 142.017 14.49C142.36 14.8485 142.624 15.276 142.792 15.7445C142.959 16.213 143.027 16.7119 142.99 17.2086V24.7937H139.359V18.1383C139.359 17.0045 138.831 16.3696 137.808 16.3696C137.581 16.3659 137.356 16.4116 137.148 16.5038C136.94 16.596 136.755 16.7323 136.604 16.9036C136.454 17.0748 136.342 17.2768 136.276 17.4958C136.21 17.7148 136.192 17.9456 136.222 18.1723V24.7937H132.782V18.1043C132.782 16.9705 132.231 16.3696 131.242 16.3696C131.013 16.3678 130.786 16.4154 130.576 16.5093C130.367 16.6033 130.18 16.7413 130.027 16.9142C129.875 17.0871 129.761 17.2908 129.693 17.5117C129.626 17.7326 129.606 17.9656 129.634 18.195V24.7937H126.026L126.003 13.6145Z" fill="#4A5D69"/>
<path d="M34 11.0376C34.0001 8.8142 33.3107 6.64261 32.022 4.80726C30.7333 2.97191 28.9055 1.55838 26.778 0.751821C24.6504 -0.0547394 22.3223 -0.216723 20.0986 0.287085C17.8749 0.790894 15.8593 1.937 14.3158 3.57529H0V33H30.226V19.2484C31.4124 18.215 32.3617 16.9496 33.012 15.5349C33.6623 14.1201 33.9989 12.5877 34 11.0376ZM28.1842 11.0376C28.1865 12.103 27.8641 13.1452 27.258 14.0321C26.6518 14.919 25.7891 15.6109 24.779 16.0202C23.7689 16.4294 22.6569 16.5376 21.5836 16.3311C20.5103 16.1246 19.5241 15.6127 18.7497 14.8601C17.9753 14.1075 17.4475 13.1481 17.2333 12.1033C17.019 11.0586 17.1278 9.97534 17.546 8.99081C17.9641 8.00627 18.6728 7.16467 19.5822 6.57252C20.4917 5.98037 21.5612 5.66429 22.6552 5.66429C24.1196 5.66429 25.5242 6.23004 26.5608 7.23741C27.5973 8.24479 28.1812 9.61148 28.1842 11.0376ZM24.4103 27.3363H5.81579V9.23905H11.4825C11.373 9.83275 11.3154 10.4344 11.3104 11.0376C11.3134 13.9669 12.5097 16.7753 14.6366 18.8466C16.7635 20.9179 19.6473 22.0829 22.6552 22.0858C23.2432 22.0828 23.8301 22.0342 24.4103 21.9406V27.3363Z" fill="#4A5D69"/>
<rect x="29" y="31" width="1" height="1" fill="#4A5D69"/>
<path d="M227 9.89968H230.378V23.2133H227V9.89968ZM231.717 18.1864C231.717 14.8937 233.789 12.929 236.987 12.929C240.184 12.929 242.256 14.8937 242.256 18.1864C242.256 21.4792 240.229 23.4548 236.987 23.4548C233.744 23.4548 231.717 21.534 231.717 18.1864ZM238.867 18.1864C238.867 16.3754 238.135 15.3108 236.987 15.3108C235.838 15.3108 235.118 16.4083 235.118 18.1864C235.118 19.9645 235.827 21.0401 236.987 21.0401C238.146 21.0401 238.867 20.0304 238.867 18.1974V18.1864ZM243.528 23.8609H246.771C246.925 24.1951 247.186 24.4718 247.514 24.6498C247.843 24.8278 248.222 24.8976 248.595 24.8487C249.878 24.8487 250.554 24.1682 250.554 23.1804V21.3365H250.486C250.217 21.9016 249.78 22.3752 249.232 22.696C248.685 23.0169 248.051 23.1703 247.412 23.1365C244.947 23.1365 243.314 21.3036 243.314 18.1535C243.314 15.0034 244.868 13.0168 247.457 13.0168C248.116 12.9917 248.766 13.1632 249.321 13.5085C249.877 13.8537 250.311 14.3562 250.565 14.9486V13.1156H253.943V23.1036C253.943 25.5073 251.77 27 248.561 27C245.577 27 243.719 25.6939 243.528 23.8719V23.8609ZM250.565 18.1754C250.565 16.573 249.811 15.5632 248.617 15.5632C247.424 15.5632 246.692 16.562 246.692 18.1754C246.692 19.7889 247.412 20.6999 248.617 20.6999C249.822 20.6999 250.565 19.8108 250.565 18.1864V18.1754ZM255.215 18.1754C255.215 14.8827 257.286 12.918 260.484 12.918C263.681 12.918 265.764 14.8827 265.764 18.1754C265.764 21.4682 263.738 23.4438 260.484 23.4438C257.23 23.4438 255.215 21.534 255.215 18.1864V18.1754ZM262.364 18.1754C262.364 16.3644 261.632 15.2998 260.484 15.2998C259.336 15.2998 258.671 16.4083 258.671 18.1974C258.671 19.9865 259.381 21.0511 260.529 21.0511C261.677 21.0511 262.364 20.0304 262.364 18.1974V18.1754ZM267.048 10.7229C267.039 10.3904 267.132 10.0629 267.314 9.78181C267.496 9.50072 267.76 9.27874 268.072 9.144C268.384 9.00926 268.73 8.96783 269.066 9.02497C269.402 9.0821 269.713 9.23522 269.96 9.46492C270.206 9.69462 270.378 9.99056 270.452 10.3152C270.526 10.6399 270.499 10.9786 270.375 11.2885C270.251 11.5984 270.036 11.8655 269.756 12.056C269.477 12.2464 269.145 12.3516 268.804 12.3583C268.578 12.3734 268.351 12.3428 268.138 12.2684C267.925 12.194 267.729 12.0773 267.564 11.9258C267.399 11.7743 267.268 11.5912 267.179 11.3879C267.091 11.1847 267.046 10.9657 267.048 10.7448V10.7229ZM267.048 13.1375H270.426V23.2133H267.048V13.1375ZM282.687 18.1754C282.687 21.4682 281.189 23.3451 278.622 23.3451C277.964 23.3862 277.308 23.2294 276.745 22.8957C276.181 22.562 275.736 22.0675 275.47 21.4792H275.402V26.4402H272.024V13.1156H275.402V14.9156H275.47C275.723 14.3176 276.16 13.8102 276.72 13.4626C277.28 13.115 277.936 12.944 278.6 12.9729C281.189 13.0168 282.732 14.9047 282.732 18.1974L282.687 18.1754ZM279.309 18.1754C279.309 16.573 278.554 15.5522 277.372 15.5522C276.19 15.5522 275.436 16.584 275.425 18.1754C275.413 19.7669 276.19 20.7877 277.372 20.7877C278.554 20.7877 279.309 19.7889 279.309 18.1974V18.1754ZM288.485 12.9071C291.288 12.9071 292.988 14.2022 293.067 16.2766H289.994C289.994 15.5632 289.386 15.1132 288.451 15.1132C287.517 15.1132 287.1 15.4644 287.1 15.9803C287.1 16.4961 287.472 16.6608 288.226 16.8144L290.388 17.2425C292.448 17.6706 293.326 18.4828 293.326 20.0084C293.326 22.0938 291.378 23.4329 288.507 23.4329C285.636 23.4329 283.756 22.0938 283.61 20.0413H286.864C286.965 20.7877 287.573 21.2267 288.564 21.2267C289.554 21.2267 290.005 20.9084 290.005 20.3816C290.005 19.8547 289.69 19.745 288.879 19.5803L286.931 19.1742C284.916 18.7681 283.857 17.7254 283.857 16.1888C283.88 14.2132 285.693 12.929 288.485 12.929V12.9071ZM304.596 23.1914H301.342V21.3145H301.275C301.096 21.9447 300.702 22.4962 300.157 22.8776C299.612 23.2589 298.95 23.4471 298.28 23.4109C297.767 23.4393 297.253 23.3601 296.774 23.1784C296.295 22.9968 295.862 22.7171 295.503 22.3581C295.145 21.9991 294.869 21.5693 294.696 21.0977C294.522 20.6261 294.454 20.1236 294.497 19.6243V13.1156H297.875V18.8669C297.875 20.0633 298.505 20.6999 299.552 20.6999C299.798 20.7004 300.041 20.6497 300.264 20.5512C300.488 20.4528 300.688 20.3088 300.85 20.129C301.012 19.9492 301.133 19.7377 301.204 19.5086C301.275 19.2796 301.296 19.0384 301.264 18.8011V13.1156H304.641L304.596 23.1914ZM306.229 13.1156H309.494V15.0583H309.561C309.741 14.4365 310.126 13.8902 310.658 13.5049C311.19 13.1196 311.838 12.9171 312.5 12.929C313.174 12.8764 313.844 13.073 314.376 13.4798C314.908 13.8865 315.263 14.4736 315.371 15.1242H315.439C315.643 14.4667 316.066 13.8941 316.641 13.4966C317.215 13.0992 317.91 12.8995 318.614 12.929C319.073 12.914 319.53 12.9933 319.956 13.1619C320.382 13.3304 320.767 13.5844 321.085 13.9074C321.404 14.2304 321.649 14.6151 321.805 15.0365C321.961 15.4579 322.025 15.9066 321.991 16.3535V23.2133H318.614V17.2315C318.614 16.1339 318.107 15.6291 317.161 15.6291C316.95 15.6273 316.742 15.6697 316.549 15.7533C316.356 15.837 316.184 15.9599 316.044 16.1139C315.905 16.2678 315.8 16.4492 315.739 16.6458C315.677 16.8424 315.659 17.0496 315.686 17.2535V23.2133H312.478V17.1876C312.478 16.1778 311.971 15.6291 311.048 15.6291C310.834 15.6291 310.624 15.6733 310.429 15.7586C310.235 15.8439 310.061 15.9685 309.919 16.1241C309.778 16.2796 309.672 16.4627 309.608 16.6612C309.544 16.8596 309.525 17.069 309.55 17.2754V23.2133H306.173L306.229 13.1156Z" fill="#4A5D69"/>
<path d="M216.761 10.3627C216.199 9.0326 215.454 7.79309 214.55 6.68215C213.213 4.99087 211.546 3.61131 209.656 2.63427C207.767 1.65723 205.699 1.10487 203.588 1.01353C201.477 0.922198 199.371 1.29396 197.409 2.10435C195.448 2.91474 193.674 4.14539 192.206 5.7153C190.737 7.28521 189.607 9.15878 188.889 11.2127C188.172 13.2666 187.883 15.4543 188.043 17.6318C188.202 19.8093 188.806 21.9273 189.814 23.8462C190.822 25.7652 192.213 27.4416 193.893 28.7653C194.971 29.6315 196.162 30.3358 197.432 30.857C199.211 31.6107 201.115 31.9989 203.038 32C207.007 31.9909 210.811 30.3555 213.616 27.4523C216.421 24.5491 217.997 20.6149 218 16.5121C218.003 14.3958 217.581 12.3019 216.761 10.3627ZM203.027 4.15608C204.754 4.15588 206.46 4.546 208.025 5.29909C207.644 5.4696 207.242 5.58868 206.831 5.65343C205.478 5.85585 204.225 6.50507 203.258 7.50417C202.292 8.50328 201.664 9.79869 201.468 11.1971C201.382 11.9813 201.037 12.7109 200.491 13.2627C199.945 13.8145 199.231 14.1548 198.471 14.2261C197.118 14.4285 195.865 15.0777 194.898 16.0768C193.932 17.0759 193.304 18.3713 193.108 19.7697C193.041 20.5154 192.734 21.2162 192.234 21.7586C191.372 19.8763 190.985 17.7993 191.109 15.7208C191.232 13.6423 191.862 11.6299 192.941 9.87088C194.019 8.11183 195.51 6.66331 197.276 5.66012C199.041 4.65692 201.023 4.13166 203.038 4.13321L203.027 4.15608ZM193.882 24.5132C194.015 24.3875 194.147 24.2732 194.28 24.136C195.264 23.1501 195.895 21.8487 196.071 20.4441C196.143 19.6545 196.484 18.9171 197.033 18.3638C197.562 17.7948 198.274 17.4452 199.035 17.3808C200.388 17.1784 201.641 16.5292 202.608 15.5301C203.574 14.5309 204.202 13.2355 204.398 11.8372C204.446 11.0113 204.789 10.2333 205.36 9.654C205.902 9.09603 206.621 8.75913 207.384 8.70529C208.627 8.52854 209.786 7.95743 210.702 7.07078C211.744 7.9647 212.627 9.04008 213.311 10.2484C213.269 10.3071 213.221 10.3607 213.168 10.4084C212.64 10.9824 211.929 11.3397 211.166 11.4142C209.812 11.6131 208.557 12.2612 207.589 13.261C206.622 14.2607 205.995 15.5581 205.803 16.9579C205.725 17.7448 205.386 18.4796 204.844 19.0379C204.302 19.5962 203.59 19.9435 202.828 20.0212C201.471 20.222 200.213 20.87 199.241 21.8687C198.269 22.8674 197.634 24.1636 197.432 25.5648C197.372 26.1234 197.186 26.6598 196.89 27.1307C195.755 26.4345 194.739 25.5502 193.882 24.5132ZM203.027 28.9253C201.905 28.9265 200.788 28.7649 199.71 28.4452C200.079 27.7343 200.318 26.9595 200.417 26.1592C200.495 25.374 200.832 24.6406 201.372 24.0825C201.912 23.5245 202.621 23.176 203.381 23.0959C204.736 22.8957 205.992 22.2475 206.96 21.2482C207.929 20.2489 208.559 18.9523 208.755 17.5523C208.833 16.7671 209.17 16.0337 209.71 15.4756C210.25 14.9175 210.959 14.5691 211.719 14.489C212.738 14.3519 213.71 13.9595 214.55 13.3459C215.016 15.1724 215.071 17.0849 214.711 18.9368C214.351 20.7888 213.586 22.5309 212.473 24.0295C211.361 25.5281 209.931 26.7434 208.293 27.5821C206.656 28.4209 204.854 28.8608 203.027 28.8681V28.9253Z" fill="#4A5D69"/>
<rect x="206" y="30" width="1" height="1" fill="#4A5D69"/>
<path d="M400.438 12C400.836 12 400.968 12.1421 400.968 12.5249V21.1849H405.469C405.856 21.1849 406 21.327 406 21.7097V22.4752C406 22.8579 405.856 23 405.469 23H399.542C399.155 23 399 22.8579 399 22.4752V12.5249C399 12.1421 399.155 12 399.542 12H400.438Z" fill="#4A5D69"/>
<path d="M410 15.8836C410 13.459 411.642 12 414.5 12C417.357 12 419 13.459 419 15.8836V19.1164C419 21.541 417.346 23 414.5 23C411.654 23 410 21.541 410 19.1164V15.8836ZM417.11 15.8836C417.11 14.5191 416.199 13.7844 414.556 13.7844C412.914 13.7844 412.014 14.5296 412.014 15.8836V19.1374C412.014 20.5124 412.914 21.2366 414.556 21.2366C416.199 21.2366 417.11 20.4809 417.11 19.1374V15.8836Z" fill="#4A5D69"/>
<path d="M432.463 16.4913C432.899 16.4913 432.999 16.6401 432.999 17.0405V19.2141C433.011 19.7261 432.911 20.2343 432.706 20.7015C432.501 21.1687 432.197 21.583 431.816 21.914C430.868 22.6868 429.674 23.0702 428.466 22.9894C425.574 22.9894 424 21.3992 424 18.7565V15.21C424 12.6016 425.63 11 428.466 11C430.699 11 432.151 11.9038 432.765 13.7113C432.799 13.7793 432.817 13.8544 432.818 13.9309C432.819 14.0074 432.803 14.0831 432.771 14.152C432.738 14.2208 432.69 14.2809 432.631 14.3276C432.572 14.3742 432.503 14.4061 432.43 14.4206L431.559 14.7295C431.179 14.8668 431.023 14.7867 430.889 14.3863C430.704 13.8977 430.365 13.4861 429.926 13.2168C429.488 12.9474 428.974 12.8356 428.466 12.8991C426.825 12.8991 425.932 13.7113 425.932 15.1871V18.8251C425.932 20.3238 426.836 21.1132 428.466 21.1132C430.096 21.1132 431.101 20.3467 431.101 19.2256V18.379H428.678C428.276 18.379 428.131 18.2188 428.131 17.8184V17.0405C428.131 16.6401 428.276 16.4913 428.678 16.4913H432.463Z" fill="#4A5D69"/>
<path d="M438 15.8836C438 13.459 439.643 12 442.5 12C445.358 12 447 13.459 447 15.8836V19.1164C447 21.541 445.346 23 442.5 23C439.654 23 438 21.541 438 19.1164V15.8836ZM445.099 15.8836C445.099 14.5191 444.187 13.7844 442.556 13.7844C440.925 13.7844 440.002 14.5296 440.002 15.8836V19.1374C440.002 20.5124 440.914 21.2366 442.556 21.2366C444.199 21.2366 445.099 20.4809 445.099 19.1374V15.8836Z" fill="#4A5D69"/>
<path d="M452 12.3171C452 12.0765 452.069 12 452.284 12H452.735C452.951 12 453 12.0765 453 12.3171V22.6829C453 22.9235 453 23 452.735 23H452.284C452.069 23 452 22.9235 452 22.6829V12.3171Z" fill="#4A5D69"/>
<path d="M463.492 12C464.422 12 465.314 12.3617 465.972 13.0056C466.63 13.6495 467 14.5228 467 15.4334C467 16.344 466.63 17.2173 465.972 17.8612C465.314 18.5051 464.422 18.8668 463.492 18.8668H460.14V22.6829C460.14 22.9235 460.084 23 459.849 23H459.324C459.089 23 459 22.9235 459 22.6829V12.3171C459 12.0765 459.089 12 459.324 12H463.492ZM463.391 17.7843C463.711 17.7843 464.028 17.7226 464.323 17.6028C464.619 17.4831 464.887 17.3075 465.113 17.0861C465.34 16.8648 465.519 16.602 465.641 16.3128C465.764 16.0236 465.827 15.7136 465.827 15.4006C465.827 15.0876 465.764 14.7776 465.641 14.4884C465.519 14.1992 465.34 13.9364 465.113 13.7151C464.887 13.4937 464.619 13.3181 464.323 13.1983C464.028 13.0786 463.711 13.0169 463.391 13.0169H460.039V17.7843H463.391Z" fill="#4A5D69"/>
<path d="M476.469 12.0227C477.368 11.9338 478.275 12.1072 479.055 12.5173C479.836 12.9273 480.448 13.5521 480.801 14.2989C480.894 14.466 480.801 14.6017 480.614 14.6853L480.102 14.8941C479.892 14.9672 479.811 14.9567 479.683 14.7583C479.419 14.2041 478.965 13.7395 478.388 13.4317C477.81 13.1238 477.138 12.9888 476.469 13.046C474.501 13.046 473.43 13.7455 473.43 14.9985C473.418 15.3814 473.562 15.7551 473.834 16.0506C474.105 16.3462 474.487 16.5436 474.909 16.6064C475.535 16.7896 476.184 16.9018 476.842 16.9406C477.637 16.9786 478.422 17.1229 479.17 17.3686C479.744 17.5314 480.238 17.8662 480.568 18.3168C480.899 18.7674 481.047 19.3064 480.987 19.8432C480.987 21.7957 479.403 22.9756 476.492 22.9756C475.537 23.0735 474.574 22.8751 473.763 22.4134C472.951 21.9518 472.341 21.2547 472.033 20.4384C472.012 20.4011 472.001 20.3603 472 20.3188C471.999 20.2773 472.008 20.2361 472.027 20.1982C472.046 20.1603 472.074 20.1266 472.109 20.0995C472.145 20.0724 472.186 20.0527 472.231 20.0416L472.743 19.8745C472.783 19.8597 472.827 19.8527 472.87 19.8537C472.914 19.8547 472.957 19.8639 472.996 19.8806C473.035 19.8973 473.071 19.9211 473.099 19.9507C473.128 19.9802 473.149 20.0147 473.162 20.052C473.423 20.6419 473.886 21.142 474.485 21.4799C475.083 21.8179 475.787 21.976 476.492 21.9314C478.693 21.9314 479.776 21.2423 479.776 19.8432C479.796 19.4754 479.671 19.113 479.421 18.8205C479.172 18.528 478.815 18.3243 478.414 18.2457C477.811 18.0846 477.19 17.9864 476.562 17.9534L475.305 17.8072C474.911 17.7323 474.522 17.6382 474.14 17.5253C473.763 17.423 473.411 17.2564 473.104 17.0345C472.795 16.7837 472.551 16.475 472.39 16.1304C472.229 15.7858 472.155 15.4136 472.172 15.0403C472.254 13.213 473.779 12.0227 476.469 12.0227Z" fill="#4A5D69"/>
<path d="M486.217 19.112C486.267 19.8694 486.634 20.5809 487.243 21.1012C487.852 21.6214 488.657 21.9111 489.494 21.9111C490.331 21.9111 491.136 21.6214 491.745 21.1012C492.354 20.5809 492.721 19.8694 492.772 19.112V12.3106C492.772 12.075 492.854 12 493.114 12H493.657C493.917 12 494 12.075 494 12.3106V19.1013C494 21.5326 492.417 23 489.5 23C486.583 23 485 21.5326 485 19.1013V12.3106C485 12.075 485.083 12 485.331 12H485.886C486.134 12 486.217 12.075 486.217 12.3106V19.112Z" fill="#4A5D69"/>
<path d="M509.682 12.0019C509.923 12.0019 510 12.0784 510 12.3189V22.683C510 22.9235 509.923 23 509.682 23H509.221C508.991 23 508.914 22.9235 508.914 22.683V16.3749C508.914 15.4571 508.977 14.5403 509.101 13.6308H509.035C508.693 14.4625 508.293 15.2697 507.84 16.0469L505.482 20.1903C505.454 20.2622 505.404 20.3237 505.339 20.3666C505.274 20.4096 505.198 20.432 505.121 20.4309H504.814C504.735 20.4312 504.657 20.4087 504.591 20.366C504.525 20.3233 504.473 20.2622 504.441 20.1903L502.05 16.0032C501.626 15.2371 501.259 14.4405 500.954 13.6199H500.888C501 14.5377 501.059 15.4612 501.064 16.3858V22.683C501.064 22.9235 500.987 23 500.746 23H500.318C500.077 23 500 22.9235 500 22.683V12.3189C500 12.0784 500.077 12.0019 500.318 12.0019H500.713C500.803 11.9935 500.894 12.0132 500.972 12.0582C501.051 12.1032 501.113 12.1714 501.151 12.2533L504.989 19.0534L508.805 12.3189C508.925 12.0893 508.991 12.0565 509.232 12.0565L509.682 12.0019Z" fill="#4A5D69"/>
<path d="M380.259 20.9817V29.1025C380.259 29.4138 380.129 29.7123 379.899 29.9325C379.669 30.1526 379.356 30.2762 379.031 30.2762C378.705 30.2762 378.393 30.1526 378.162 29.9325C377.932 29.7123 377.803 29.4138 377.803 29.1025V20.993C378.145 21.2316 378.555 21.3649 378.978 21.3749C379.439 21.3875 379.891 21.2487 380.259 20.9817ZM390.717 18.6343C390.406 18.6343 390.107 18.7526 389.886 18.9632C389.666 19.1739 389.542 19.4596 389.542 19.7575V21.1727C389.542 21.484 389.672 21.7825 389.902 22.0027C390.132 22.2228 390.445 22.3464 390.77 22.3464C391.096 22.3464 391.408 22.2228 391.639 22.0027C391.869 21.7825 391.998 21.484 391.998 21.1727V19.8136C392.007 19.6526 391.98 19.4915 391.918 19.3414C391.857 19.1913 391.762 19.0557 391.64 18.9438C391.519 18.8319 391.373 18.7464 391.214 18.6929C391.055 18.6395 390.885 18.6195 390.717 18.6343ZM375.135 24.0593C374.712 24.0472 374.303 23.9142 373.96 23.6774V31.8206C373.96 32.1334 374.09 32.4334 374.322 32.6546C374.553 32.8757 374.867 33 375.194 33C375.521 33 375.835 32.8757 376.067 32.6546C376.298 32.4334 376.428 32.1334 376.428 31.8206V23.7336C376.044 23.9707 375.591 24.0848 375.135 24.0593ZM386.886 16.1969C386.727 16.1893 386.568 16.2127 386.419 16.2657C386.269 16.3188 386.133 16.4003 386.017 16.5054C385.902 16.6104 385.81 16.7368 385.747 16.8769C385.685 17.017 385.652 17.1678 385.653 17.3201V23.5763C385.653 23.8891 385.783 24.1891 386.014 24.4103C386.245 24.6315 386.559 24.7557 386.886 24.7557C387.214 24.7557 387.528 24.6315 387.759 24.4103C387.99 24.1891 388.12 23.8891 388.12 23.5763V17.3987C388.13 17.2366 388.102 17.0745 388.04 16.9236C387.977 16.7726 387.881 16.6364 387.758 16.5243C387.636 16.4122 387.489 16.3269 387.328 16.2743C387.167 16.2216 386.997 16.2029 386.828 16.2194L386.886 16.1969ZM382.985 18.6006C382.542 18.5977 382.112 18.4643 381.751 18.2187V26.3843C381.751 26.6971 381.881 26.9971 382.113 27.2183C382.344 27.4395 382.658 27.5637 382.985 27.5637C383.312 27.5637 383.626 27.4395 383.858 27.2183C384.089 26.9971 384.219 26.6971 384.219 26.3843V18.2299C383.846 18.4953 383.391 18.6337 382.926 18.623L382.985 18.6006ZM372.468 24.8568V2.04458C372.465 1.76651 372.347 1.50084 372.14 1.30526C371.933 1.10968 371.654 0.999984 371.363 1H371.105C370.814 0.999984 370.534 1.10968 370.328 1.30526C370.121 1.50084 370.003 1.76651 370 2.04458V24.8568C370 25.1368 370.116 25.4054 370.324 25.6034C370.531 25.8014 370.812 25.9126 371.105 25.9126H371.363C371.656 25.9126 371.937 25.8014 372.144 25.6034C372.351 25.4054 372.468 25.1368 372.468 24.8568ZM375.265 23.1945H375.006C374.713 23.1945 374.432 23.0832 374.225 22.8852C374.018 22.6872 373.901 22.4187 373.901 22.1386V4.76273C373.905 4.48466 374.022 4.21899 374.229 4.02341C374.436 3.82783 374.715 3.71813 375.006 3.71815H375.265C375.555 3.71813 375.835 3.82783 376.041 4.02341C376.248 4.21899 376.366 4.48466 376.369 4.76273V22.1611C376.369 22.4411 376.253 22.7097 376.046 22.9077C375.838 23.1057 375.558 23.2169 375.265 23.2169V23.1945ZM379.154 20.5212H378.884C378.594 20.5212 378.316 20.4112 378.111 20.2153C377.906 20.0194 377.791 19.7537 377.791 19.4767V7.45841C377.79 7.32029 377.817 7.18325 377.871 7.05521C377.925 6.92718 378.005 6.8107 378.107 6.71251C378.209 6.61432 378.33 6.53637 378.463 6.48317C378.596 6.42998 378.739 6.40259 378.884 6.4026H379.154C379.445 6.40556 379.723 6.5181 379.928 6.71578C380.132 6.91347 380.247 7.18032 380.247 7.45841V19.4767C380.247 19.7537 380.132 20.0194 379.927 20.2153C379.722 20.4112 379.444 20.5212 379.154 20.5212ZM383.044 17.7694H382.797C382.506 17.7694 382.227 17.6597 382.02 17.4641C381.813 17.2686 381.696 17.0029 381.692 16.7248V10.2552C381.683 10.111 381.704 9.96639 381.755 9.83041C381.807 9.69443 381.886 9.56995 381.99 9.46465C382.094 9.35936 382.219 9.2755 382.357 9.21828C382.496 9.16106 382.646 9.13168 382.797 9.13198H383.056C383.349 9.13198 383.63 9.24321 383.837 9.44121C384.044 9.63922 384.16 9.90777 384.16 10.1878V16.7024C384.162 16.8419 384.134 16.9804 384.08 17.1098C384.025 17.2392 383.944 17.357 383.841 17.4562C383.738 17.5554 383.616 17.6342 383.481 17.688C383.346 17.7417 383.202 17.7694 383.056 17.7694H383.044ZM386.945 15.3545H386.687C386.394 15.3545 386.113 15.2433 385.906 15.0453C385.698 14.8473 385.582 14.5787 385.582 14.2987V12.6251C385.585 12.3471 385.703 12.0814 385.91 11.8858C386.117 11.6902 386.396 11.5805 386.687 11.5806H386.945C387.236 11.5805 387.515 11.6902 387.722 11.8858C387.929 12.0814 388.047 12.3471 388.05 12.6251V14.2987C388.05 14.5768 387.935 14.8436 387.73 15.0413C387.526 15.239 387.248 15.3516 386.957 15.3545H386.945Z" fill="#4A5D69"/>
<rect x="375" y="31" width="1" height="1" fill="#4A5D69"/>
</svg>
